<?xml version="1.0" encoding="iso-8859-1"?>
<!-- Uploaded to: SVG Repo, www.svgrepo.com, Generator: SVG Repo Mixer Tools -->
<svg height="800px" width="800px" version="1.1" id="Layer_1" xmlns="http://www.w3.org/2000/svg" xmlns:xlink="http://www.w3.org/1999/xlink" 
	 viewBox="0 0 512 512" xml:space="preserve">
<g>
	<polygon style="fill:#556080;" points="308.966,414.897 485.517,414.897 485.517,105.931 308.966,105.931 	"/>
	<g>
		<polygon style="fill:#8697CB;" points="344.276,229.517 450.207,229.517 450.207,158.897 344.276,158.897 		"/>
		<path style="fill:#8697CB;" d="M344.277,300.138c-4.882,0-8.828-3.955-8.828-8.828v-26.483c0-4.873,3.946-8.828,8.828-8.828
			c4.882,0,8.828,3.955,8.828,8.828v26.483C353.104,296.183,349.158,300.138,344.277,300.138"/>
		<path style="fill:#8697CB;" d="M450.208,300.138c-4.882,0-8.828-3.955-8.828-8.828v-26.483c0-4.873,3.946-8.828,8.828-8.828
			c4.882,0,8.828,3.955,8.828,8.828v26.483C459.035,296.183,455.089,300.138,450.208,300.138"/>
		<path style="fill:#8697CB;" d="M414.897,300.138c-4.882,0-8.828-3.955-8.828-8.828v-26.483c0-4.873,3.946-8.828,8.828-8.828
			s8.828,3.955,8.828,8.828v26.483C423.725,296.183,419.779,300.138,414.897,300.138"/>
		<path style="fill:#8697CB;" d="M379.587,300.138c-4.882,0-8.828-3.955-8.828-8.828v-26.483c0-4.873,3.946-8.828,8.828-8.828
			c4.882,0,8.828,3.955,8.828,8.828v26.483C388.415,296.183,384.469,300.138,379.587,300.138"/>
		<polygon style="fill:#8697CB;" points="344.276,361.931 379.586,361.931 379.586,326.621 344.276,326.621 		"/>
		<polygon style="fill:#8697CB;" points="414.897,361.931 450.207,361.931 450.207,326.621 414.897,326.621 		"/>
	</g>
	<g>
		<polygon style="fill:#BDC3C7;" points="26.483,512 79.448,512 79.448,388.414 26.483,388.414 		"/>
		<polygon style="fill:#BDC3C7;" points="132.414,512 185.379,512 185.379,388.414 132.414,388.414 		"/>
		<polygon style="fill:#BDC3C7;" points="70.621,335.448 141.241,335.448 141.241,282.483 70.621,282.483 		"/>
	</g>
	<polygon style="fill:#ECF0F1;" points="70.622,282.483 141.242,282.483 211.863,176.552 0.001,176.552 	"/>
	<polygon style="fill:#BDC3C7;" points="0,176.552 211.862,176.552 211.862,141.241 0,141.241 	"/>
	<polygon style="fill:#ECF0F1;" points="26.483,388.414 185.379,388.414 185.379,335.448 26.483,335.448 	"/>
	<g>
		<polygon style="fill:#8697CB;" points="282.483,105.931 512,105.931 512,70.621 282.483,70.621 		"/>
		<polygon style="fill:#8697CB;" points="282.483,450.207 512,450.207 512,414.897 282.483,414.897 		"/>
	</g>
	<g>
		<polygon style="fill:#556080;" points="70.621,105.931 141.241,105.931 141.241,70.621 70.621,70.621 		"/>
		<path style="fill:#556080;" d="M423.725,512h-52.966c-34.127,0-61.793-27.666-61.793-61.793l0,0h176.552l0,0
			C485.518,484.334,457.852,512,423.725,512"/>
		<path style="fill:#556080;" d="M485.518,70.621H308.966l0,0c0-39,31.62-70.621,70.621-70.621h35.31
			C453.898,0,485.518,31.62,485.518,70.621L485.518,70.621z"/>
	</g>
	<path style="fill:#8697CB;" d="M379.587,0h-256h-35.31v35.31v35.31h35.31V35.31h194.904C330.709,14.221,353.466,0,379.587,0"/>
</g>
</svg>