<?xml version="1.0" encoding="iso-8859-1"?>
<!-- Uploaded to: SVG Repo, www.svgrepo.com, Generator: SVG Repo Mixer Tools -->
<svg version="1.1" id="Layer_1" xmlns="http://www.w3.org/2000/svg" xmlns:xlink="http://www.w3.org/1999/xlink" 
	 viewBox="0 0 512.001 512.001" xml:space="preserve">
<path style="fill:#FFB92E;" d="M236.361,168.522v64.437c0,6.246-5.063,11.307-11.307,11.307H57.561
	c-6.246,0-11.307-5.061-11.307-11.307V118.934c0-6.244,5.061-11.307,11.307-11.307h167.493c6.244,0,11.307,5.063,11.307,11.307
	v22.648"/>
<path style="fill:#EF9A1D;" d="M75.339,234.922V120.897c0-6.244,5.061-11.307,11.307-11.307h-21.45
	c-6.246,0-11.307,5.063-11.307,11.307v114.025c0,6.246,5.061,11.307,11.307,11.307h21.45C80.4,246.23,75.339,241.168,75.339,234.922
	z"/>
<path style="fill:#DFDBCC;" d="M277.452,244.266H40.637c-17.979,0-32.551,14.573-32.551,32.549v0.499
	c0,17.977,14.572,32.549,32.551,32.549h236.815V244.266z"/>
<path style="fill:#D8CFB2;" d="M37.17,279.278v-0.499c0-17.977,14.573-32.549,32.551-32.549h-21.45
	c-17.979,0-32.551,14.573-32.551,32.549v0.499c0,17.977,14.573,32.549,32.551,32.549h21.45
	C51.743,311.827,37.17,297.254,37.17,279.278z"/>
<polygon style="fill:#CCC3A8;" points="277.452,309.865 50.576,309.865 67.823,340.203 127.799,340.203 129.358,340.203 
	139.66,340.203 143.275,340.203 150.728,340.203 152.286,340.203 162.677,340.203 199.637,340.203 201.195,340.203 203.252,340.203 
	204.81,340.203 212.263,340.203 215.113,340.203 222.563,340.203 222.654,340.203 224.122,340.203 224.212,340.203 226.181,340.203 
	227.738,340.203 234.515,340.203 238.13,340.203 245.583,340.203 247.14,340.203 275.09,340.203 276.648,340.203 277.452,340.203 
	"/>
<path style="fill:#C9B585;" d="M98.032,340.776l-14.872-26.16c-0.949-1.669-0.938-3.714,0.026-5.373
	c0.966-1.659,2.74-2.679,4.659-2.679h-21.45c-1.919,0-3.693,1.02-4.659,2.679c-0.965,1.659-0.974,3.706-0.026,5.373l14.872,26.162
	c0.958,1.685,2.746,2.726,4.686,2.726h21.45C100.778,343.503,98.99,342.462,98.032,340.776z"/>
<path style="fill:#CCC3A8;" d="M414.294,422.059h-32.423H209.179h-79.196h-13.177v30.338h13.177h79.196h111.456h29.436h23.049
	h34.605h39.064h14.278h12.511v-9.295c0,0,0-2.743,0-4.215v-3.32c0-1.473,0-4.215,0-4.215v-9.295h-12.511h-19.826"/>
<rect x="103.781" y="424.022" style="fill:#C9B585;" width="40.971" height="30.343"/>
<rect x="277.452" y="38.423" style="fill:#4BAF78;" width="226.466" height="301.778"/>
<path style="fill:#36A1CB;" d="M440.163,175.946h16.278c6.452,0,11.684-5.232,11.684-11.684V87.961
	c0-6.452-5.231-11.684-11.684-11.684H324.93c-6.452,0-11.684,5.232-11.684,11.684v76.302c0,6.452,5.231,11.684,11.684,11.684h87.208
	"/>
<path style="fill:#299956;" d="M319.471,38.423h-21.45c-7.143,0-12.935,5.792-12.935,12.935v288.846h21.45V51.357
	C306.537,44.215,312.328,38.423,319.471,38.423z"/>
<path style="fill:#2B80AF;" d="M342.33,166.225V89.923c0-6.452,5.232-11.684,11.684-11.684h-21.45
	c-6.452,0-11.684,5.232-11.684,11.684v76.302c0,6.452,5.231,11.684,11.684,11.684h21.45
	C347.561,177.91,342.33,172.678,342.33,166.225z"/>
<polygon style="fill:#7C7A75;" points="458.158,8.084 456.6,8.084 454.542,8.084 453.576,8.084 452.985,8.084 452.019,8.084 
	447.134,8.084 445.576,8.084 441.715,8.084 438.124,8.084 438.1,8.084 434.509,8.084 430.647,8.084 429.09,8.084 427.732,8.084 
	426.174,8.084 424.206,8.084 424.115,8.084 422.647,8.084 422.557,8.084 418.698,8.084 416.025,8.084 415.106,8.084 412.256,8.084 
	405.633,8.084 404.804,8.084 404.075,8.084 403.245,8.084 401.189,8.084 400.223,8.084 399.631,8.084 398.664,8.084 396.623,8.084 
	393.007,8.084 388.362,8.084 384.746,8.084 382.705,8.084 381.738,8.084 381.147,8.084 380.18,8.084 378.124,8.084 377.294,8.084 
	376.566,8.084 375.736,8.084 369.113,8.084 366.263,8.084 365.344,8.084 362.671,8.084 358.812,8.084 358.722,8.084 357.255,8.084 
	357.164,8.084 355.195,8.084 353.637,8.084 352.279,8.084 350.722,8.084 346.861,8.084 343.269,8.084 343.245,8.084 339.654,8.084 
	335.793,8.084 334.235,8.084 329.351,8.084 328.384,8.084 327.793,8.084 326.827,8.084 324.77,8.084 323.212,8.084 321.17,8.084 
	303.924,38.423 477.445,38.423 460.199,8.084 "/>
<path style="fill:#6B6861;" d="M334.025,46.861c-0.807-1.594-0.773-3.484,0.094-5.047L351.1,11.169
	c1.069-1.931,3.209-3.014,5.398-2.734l-21.277-2.722c-2.189-0.28-4.329,0.804-5.398,2.735l-16.981,30.645
	c-0.867,1.563-0.901,3.452-0.094,5.048c0.807,1.594,2.353,2.684,4.124,2.91l21.277,2.722
	C336.376,49.545,334.832,48.455,334.025,46.861z"/>
<g>
	<polygon style="fill:#7C7A75;" points="116.806,168.877 116.806,107.627 165.808,107.627 165.808,168.877 141.309,149.51 	"/>
	<rect x="116.802" y="217.681" style="fill:#7C7A75;" width="49.001" height="26.59"/>
</g>
<circle style="fill:#FFB92E;" cx="399.2" cy="292.767" r="16.168"/>
<circle style="fill:#E35F46;" cx="455.466" cy="292.767" r="16.168"/>
<g>
	<polygon style="fill:#7C7A75;" points="164.9,340.203 115.562,389.545 115.562,340.203 	"/>
	<polygon style="fill:#7C7A75;" points="424.239,340.203 473.578,389.545 473.578,340.203 	"/>
</g>
<g>
	<path style="fill:#36A1CB;" d="M473.578,409.207v39.512v41.688c0,7.461,6.048,13.509,13.509,13.509h3.32
		c7.461,0,13.509-6.048,13.509-13.509v-41.688v-39.512v-69.004h-30.34v69.004H473.578z"/>
	<path style="fill:#36A1CB;" d="M85.222,340.203v69.004v81.2c0,7.461,6.048,13.509,13.509,13.509h3.32
		c7.461,0,13.509-6.048,13.509-13.509v-81.2v-69.004H85.222z"/>
</g>
<g>
	<path style="fill:#6B6861;" d="M141.396,109.59h-25.039v55.686c0,1.24,0.709,2.37,1.824,2.91c0.447,0.217,0.929,0.323,1.41,0.323
		c0.714,0,1.423-0.237,2.005-0.696l19.801-15.651V109.59z"/>
	<path style="fill:#6B6861;" d="M141.396,219.102H119.59c-1.785,0-3.234,1.448-3.234,3.234v23.895h25.039V219.102z"/>
</g>
<g>
	<path style="fill:#231F20;" d="M64.856,277.064c0-4.466-3.618-8.084-8.084-8.084H43.299c-4.466,0-8.084,3.618-8.084,8.084
		c0,4.466,3.618,8.084,8.084,8.084h13.474C61.238,285.148,64.856,281.53,64.856,277.064z"/>
	<path style="fill:#231F20;" d="M86.373,285.148h29.601c4.466,0,8.084-3.618,8.084-8.084c0-4.466-3.618-8.084-8.084-8.084H86.373
		c-4.466,0-8.084,3.618-8.084,8.084C78.289,281.53,81.908,285.148,86.373,285.148z"/>
	<path style="fill:#231F20;" d="M145.576,285.148h29.601c4.466,0,8.084-3.618,8.084-8.084c0-4.466-3.618-8.084-8.084-8.084h-29.601
		c-4.466,0-8.084,3.618-8.084,8.084C137.491,281.53,141.11,285.148,145.576,285.148z"/>
	<path style="fill:#231F20;" d="M204.777,285.148h29.601c4.466,0,8.084-3.618,8.084-8.084c0-4.466-3.618-8.084-8.084-8.084h-29.601
		c-4.466,0-8.084,3.618-8.084,8.084C196.693,281.53,200.311,285.148,204.777,285.148z"/>
	<path style="fill:#231F20;" d="M503.917,30.338h-21.768L467.228,4.09C465.791,1.561,463.107,0,460.199,0H321.17
		c-2.907,0-5.592,1.561-7.029,4.09L299.22,30.34h-21.768c-4.466,0-8.084,3.618-8.084,8.084v197.759h-25.212
		c0.177-1.051,0.291-2.122,0.291-3.223v-64.437c0-4.466-3.618-8.084-8.084-8.084c-4.466,0-8.084,3.618-8.084,8.084v64.437
		c0,1.776-1.447,3.223-3.223,3.223h-51.162v-18.505c0-4.466-3.618-8.084-8.084-8.084h-49.002c-4.466,0-8.084,3.618-8.084,8.084
		v18.505H57.561c-1.776,0-3.223-1.447-3.223-3.223V118.934c0-1.776,1.447-3.223,3.223-3.223h51.16v53.166
		c0,3.099,1.771,5.925,4.561,7.276c1.119,0.542,2.324,0.808,3.523,0.808c1.786,0,3.559-0.592,5.013-1.742l19.49-15.404
		l19.485,15.404c2.433,1.922,5.747,2.284,8.537,0.933c2.79-1.351,4.561-4.177,4.561-7.276v-53.166h51.162
		c1.776,0,3.223,1.447,3.223,3.223v22.648c0,4.466,3.618,8.084,8.084,8.084c4.466,0,8.084-3.618,8.084-8.084v-22.648
		c0-10.693-8.699-19.391-19.391-19.391h-59.246h-49.002H57.561c-10.693,0-19.391,8.699-19.391,19.391v114.025
		c0,1.121,0.116,2.213,0.3,3.282c-21.402,1.131-38.468,18.897-38.468,40.575v0.499c0,22.405,18.229,40.633,40.636,40.633h5.235
		l14.921,26.25c1.437,2.529,4.121,4.09,7.028,4.09h9.316v142.119c0,11.906,9.687,21.593,21.593,21.593h3.32
		c11.906,0,21.593-9.687,21.593-21.593v-29.925h341.848v29.925c0,11.906,9.687,21.593,21.593,21.593h3.32
		c11.906,0,21.593-9.687,21.593-21.593V340.203V38.423C512.002,33.958,508.383,30.338,503.917,30.338z M157.723,115.711v36.471
		l-11.401-9.012c-2.937-2.321-7.087-2.322-10.027,0l-11.406,9.014v-36.473H157.723z M325.873,16.168h129.623l8.055,14.17H317.819
		L325.873,16.168z M285.536,46.507h18.388h173.522h18.388v285.612h-22.255h-49.338H285.536v-22.254v-65.597V46.507z
		 M465.494,370.026l-21.738-21.739h21.738V370.026z M124.89,225.761h32.834v10.421H124.89
		C124.89,236.182,124.89,225.761,124.89,225.761z M16.17,277.314v-0.499c0-13.491,10.976-24.465,24.467-24.465h16.924h59.244h49.002
		h59.246h44.313v16.63h-5.389c-4.466,0-8.084,3.618-8.084,8.084c0,4.466,3.618,8.084,8.084,8.084h5.389v16.632H50.576h-9.939
		C27.146,301.78,16.17,290.805,16.17,277.314z M64.472,317.949h204.896v14.17H164.9h-49.338H85.223H72.526L64.472,317.949z
		 M123.646,348.287h21.738l-21.738,21.739C123.646,370.026,123.646,348.287,123.646,348.287z M107.477,490.407
		c0,2.991-2.434,5.425-5.425,5.425h-3.32c-2.991,0-5.425-2.434-5.425-5.425V348.287h14.17v41.256V490.407z M124.89,444.314v-14.17
		h289.404c4.466,0,8.084-3.618,8.084-8.084s-3.618-8.084-8.084-8.084H123.646v-21.083l44.603-44.605h109.203H420.89l44.603,44.605
		v21.083h-24.253c-4.466,0-8.084,3.618-8.084,8.084s3.618,8.084,8.084,8.084h24.253v14.17H124.89z M495.833,490.407
		c0,2.991-2.434,5.425-5.425,5.425h-3.32c-2.991,0-5.425-2.434-5.425-5.425v-38.009v-30.338v-32.515v-41.256h14.17V490.407z"/>
	<path style="fill:#231F20;" d="M324.93,184.03h87.208c4.466,0,8.084-3.618,8.084-8.084s-3.618-8.084-8.084-8.084H324.93
		c-1.986,0-3.6-1.615-3.6-3.6V87.961c0-1.985,1.615-3.6,3.6-3.6h131.512c1.986,0,3.6,1.615,3.6,3.6v76.302
		c0,1.985-1.615,3.6-3.6,3.6h-16.278c-4.466,0-8.084,3.618-8.084,8.084s3.618,8.084,8.084,8.084h16.278
		c10.9,0,19.769-8.869,19.769-19.769V87.961c0-10.9-8.868-19.769-19.769-19.769H324.93c-10.9,0-19.769,8.869-19.769,19.769v76.302
		C305.161,175.162,314.03,184.03,324.93,184.03z"/>
	<path style="fill:#231F20;" d="M313.245,218.215h154.881c4.466,0,8.084-3.618,8.084-8.084s-3.618-8.084-8.084-8.084H313.245
		c-4.466,0-8.084,3.618-8.084,8.084S308.781,218.215,313.245,218.215z"/>
	<path style="fill:#231F20;" d="M313.245,252.35h154.881c4.466,0,8.084-3.618,8.084-8.084c0-4.466-3.618-8.084-8.084-8.084H313.245
		c-4.466,0-8.084,3.618-8.084,8.084C305.161,248.732,308.781,252.35,313.245,252.35z"/>
	<path style="fill:#231F20;" d="M399.203,268.519c-13.372,0-24.253,10.88-24.253,24.253s10.88,24.253,24.253,24.253
		s24.253-10.88,24.253-24.253S412.577,268.519,399.203,268.519z M399.203,300.855c-4.458,0-8.084-3.626-8.084-8.084
		s3.626-8.084,8.084-8.084s8.084,3.626,8.084,8.084S403.661,300.855,399.203,300.855z"/>
	<path style="fill:#231F20;" d="M455.463,268.519c-13.372,0-24.253,10.88-24.253,24.253s10.88,24.253,24.253,24.253
		c13.372,0,24.253-10.88,24.253-24.253S468.835,268.519,455.463,268.519z M455.463,300.855c-4.458,0-8.084-3.626-8.084-8.084
		s3.626-8.084,8.084-8.084s8.084,3.626,8.084,8.084S459.921,300.855,455.463,300.855z"/>
</g>
</svg>